<?xml version="1.0" encoding="UTF-8"?>
<svg width="84.816px" height="84.816px" viewBox="0 0 84.816 84.816" version="1.1" xmlns="http://www.w3.org/2000/svg" xmlns:xlink="http://www.w3.org/1999/xlink">
    <title>charater/expression/MouthLike</title>
    <defs>
        <radialGradient cx="50%" cy="0%" fx="50%" fy="0%" r="90.5645343%" gradientTransform="translate(0.500000,0.000000),rotate(89.061457),scale(1.000000,0.639961),translate(-0.500000,-0.000000)" id="radialGradient-1">
            <stop stop-color="#FED5CC" offset="0%"></stop>
            <stop stop-color="#FCB8A9" offset="79.3979458%"></stop>
            <stop stop-color="#BD7162" offset="100%"></stop>
        </radialGradient>
        <path d="M42.13,2.84217094e-14 C18.837,0.149 -1.98951966e-13,19.079 -1.98951966e-13,42.407 L-1.98951966e-13,42.407 C-1.98951966e-13,65.829 18.986,84.816 42.408,84.816 L42.408,84.816 C65.737,84.816 84.666,65.979 84.816,42.685 L84.816,42.685 L84.816,42.129 C84.667,18.929 65.886,0.149 42.686,2.84217094e-14 L42.686,2.84217094e-14 L42.13,2.84217094e-14 Z" id="path-2"></path>
        <filter x="-3.5%" y="-3.5%" width="107.1%" height="107.1%" filterUnits="objectBoundingBox" id="filter-3">
            <feGaussianBlur stdDeviation="3" in="SourceAlpha" result="shadowBlurInner1"></feGaussianBlur>
            <feOffset dx="0" dy="0" in="shadowBlurInner1" result="shadowOffsetInner1"></feOffset>
            <feComposite in="shadowOffsetInner1" in2="SourceAlpha" operator="arithmetic" k2="-1" k3="1" result="shadowInnerInner1"></feComposite>
            <feColorMatrix values="0 0 0 0 1   0 0 0 0 1   0 0 0 0 1  0 0 0 0.5 0" type="matrix" in="shadowInnerInner1"></feColorMatrix>
        </filter>
        <linearGradient x1="49.6147219%" y1="53.65506%" x2="50.8044701%" y2="43.1127625%" id="linearGradient-4">
            <stop stop-color="#FFFFFF" offset="0%"></stop>
            <stop stop-color="#FFFFFF" offset="100%"></stop>
        </linearGradient>
        <path d="M7.81597009e-14,5.49626456 C-0.0486495583,12.9160341 7.99631394,18.96155 17.9694622,19 L17.9694622,19 C27.9421169,19.038085 36.0655702,13.0537221 36.1149865,5.63395256 L36.1149865,5.63395256 C36.1401109,1.88936439 26.9558104,-0.000375171642 17.8430886,0 L17.8430886,0 C8.89968776,0.000375171642 0.0244101826,1.82108315 7.81597009e-14,5.49626456" id="path-5"></path>
    </defs>
    <g id="charater/expression/MouthLike" stroke="none" stroke-width="1" fill="none" fill-rule="evenodd">
        <g id="bg">
            <use fill="url(#radialGradient-1)" fill-rule="evenodd" xlink:href="#path-2"></use>
            <use fill="black" fill-opacity="1" filter="url(#filter-3)" xlink:href="#path-2"></use>
        </g>
        <path d="M51.8576,15.9305 C50.7946,15.0005 50.6886,13.3865 51.6256,12.3005 C54.3276,9.2315 59.2546,7.1625 63.8326,8.6145 C68.4106,10.0665 71.2106,14.7065 71.6266,18.6915 C71.7816,20.0745 70.7716,21.3095 69.3966,21.4415 C68.0136,21.5965 66.7786,20.5865 66.6466,19.2115 C66.4076,17.1595 64.4816,14.7465 62.1256,13.9995 C59.7466,13.2455 56.8846,14.0915 55.4876,15.6985 C54.7916,16.4905 53.7226,16.7435 52.7806,16.4455 C52.4446,16.3385 52.1286,16.1645 51.8576,15.9305" id="eye__right" fill="#1F0D09"></path>
        <path d="M32.591,17.4452 C31.649,17.7442 30.58,17.4902 29.885,16.6982 C28.487,15.0912 25.625,14.2462 23.246,15.0002 C20.891,15.7472 18.964,18.1602 18.725,20.2122 C18.593,21.5872 17.358,22.5962 15.975,22.4412 C14.6,22.3092 13.591,21.0742 13.745,19.6912 C14.161,15.7072 16.961,11.0662 21.539,9.6142 C26.116,8.1632 31.044,10.2312 33.746,13.3002 C34.683,14.3862 34.577,16.0012 33.514,16.9302 C33.242,17.1652 32.927,17.3392 32.591,17.4452" id="eye__left" fill="#1F0D09"></path>
        <path d="M81.848,44.059 C82.36,46.742 81.868,50.482 81.284,52.351 L81.284,52.351 C82.331,50.493 83.634,47.729 83.333,44.652 L83.333,44.652 C82.937,40.601 80.282,38.56 78.36,36.765 L78.36,36.765 C79.897,38.839 81.051,39.885 81.848,44.059 M3.012,44.652 C2.71,47.729 4.014,50.493 5.061,52.351 L5.061,52.351 C4.477,50.482 3.984,46.742 4.496,44.059 L4.496,44.059 C5.293,39.885 6.448,38.839 7.985,36.765 L7.985,36.765 C6.063,38.56 3.407,40.601 3.012,44.652" id="wrinkles" fill-opacity="0.2" fill="url(#linearGradient-4)" opacity="0"></path>
        <path d="M25.7784012,39.9615228 C26.6092541,39.3205859 27.784262,39.4347986 28.4781312,40.197667 L28.8054257,40.5914086 C29.0148931,40.8364378 29.2655486,41.1130324 29.5556224,41.4132755 C30.3932703,42.2802891 31.3692654,43.1502393 32.4678772,43.9606945 C39.6117236,49.2307699 47.5814499,49.4260115 56.3452343,41.0973482 C57.1459066,40.3364292 58.4118264,40.3686556 59.1727454,41.1693279 C59.9336644,41.9700002 59.901438,43.23592 59.1007657,43.996839 C48.8139003,53.7729625 38.6948873,53.5250678 30.0932742,47.1795856 C28.804821,46.229083 27.6640863,45.2122926 26.6788975,44.1925657 L26.3045449,43.7971988 L25.9832579,43.4432704 C25.934168,43.3879637 25.887316,43.3345547 25.8427153,43.283129 L25.6022344,42.9990582 C25.531151,42.9127573 25.4691801,42.8350739 25.4164292,42.7666924 C24.7417588,41.8921104 24.9038192,40.6361932 25.7784012,39.9615228 Z" id="mouth__light" fill-opacity="0.3" fill="#FFFFFF" fill-rule="nonzero"></path>
        <path d="M25.7784012,37.9615228 C26.6092541,37.3205859 27.784262,37.4347986 28.4781312,38.197667 L28.8054257,38.5914086 C29.0148931,38.8364378 29.2655486,39.1130324 29.5556224,39.4132755 C30.3932703,40.2802891 31.3692654,41.1502393 32.4678772,41.9606945 C39.6117236,47.2307699 47.5814499,47.4260115 56.3452343,39.0973482 C57.1459066,38.3364292 58.4118264,38.3686556 59.1727454,39.1693279 C59.9336644,39.9700002 59.901438,41.23592 59.1007657,41.996839 C48.8139003,51.7729625 38.6948873,51.5250678 30.0932742,45.1795856 C28.804821,44.229083 27.6640863,43.2122926 26.6788975,42.1925657 L26.3045449,41.7971988 L25.9832579,41.4432704 C25.934168,41.3879637 25.887316,41.3345547 25.8427153,41.283129 L25.6022344,40.9990582 C25.531151,40.9127573 25.4691801,40.8350739 25.4164292,40.7666924 C24.7417588,39.8921104 24.9038192,38.6361932 25.7784012,37.9615228 Z" id="mouth" fill="#1F0D09" fill-rule="nonzero"></path>
        <g id="tonge" transform="translate(24.947835, 29.733000)">
            <mask id="mask-6" fill="white">
                <use xlink:href="#path-5"></use>
            </mask>
            <g id="mask"></g>
            <path d="M20.4945653,15.6577936 L19.2675653,13.3667936 C18.0485653,11.0887936 19.0275653,8.18979359 21.4565653,6.88979359 C23.8835653,5.59279359 26.8375653,6.38679359 28.0565653,8.66579359 L29.3535653,11.0877936 C29.3535653,11.0877936 26.7055653,15.2147936 20.4945653,15.6577936" id="mouth__tonge" fill="#BE1E2D" mask="url(#mask-6)"></path>
        </g>
    </g>
</svg>