<svg id="eG4xzlEUsMA1" xmlns="http://www.w3.org/2000/svg" xmlns:xlink="http://www.w3.org/1999/xlink" viewBox="0 0 160 160" shape-rendering="geometricPrecision" text-rendering="geometricPrecision" project-id="668ab2641e2a41d883cb86d13cbb4562" export-id="47b53f42d0524f12a4e1d0714f0995d9" cached="false">
<style><![CDATA[
#eG4xzlEUsMA2_tr {animation: eG4xzlEUsMA2_tr__tr 1500ms linear infinite normal forwards}@keyframes eG4xzlEUsMA2_tr__tr { 0% {transform: translate(80px,80px) rotate(0deg)} 100% {transform: translate(80px,80px) rotate(360deg)}}
]]></style>
<defs><radialGradient id="eG4xzlEUsMA2-fill" cx="0" cy="0" r="1" spreadMethod="pad" gradientUnits="userSpaceOnUse" gradientTransform="matrix(0 80 -80 0 79.0632 80)"><stop id="eG4xzlEUsMA2-fill-0" offset="0%" stop-color="#5a09d9"/><stop id="eG4xzlEUsMA2-fill-1" offset="26.0417%" stop-color="#5a09d9"/><stop id="eG4xzlEUsMA2-fill-2" offset="100%" stop-color="rgba(90,9,217,0)"/></radialGradient></defs><g id="eG4xzlEUsMA2_tr" transform="translate(80,80) rotate(0)"><path d="M91.291,0L80,79.9895L80.0017,80L113.333,7.69081L91.291,0ZM40,7.8876L79.9953,80L80,79.9963L65.9851,0L40,7.8876ZM80,79.9974L80.0006,80L153.333,41.2615L138.084,20L80,79.9974ZM6.66667,41.6617L79.9906,80L80,79.9896L21.6933,20L6.66667,41.6617ZM80,80.4256l.0006.002L160,93.3333l-.088-26.6666L80,80.4256ZM0.086532,93.3333L79.9845,79.5806L80,79.5643L0,66.6667l.086532,26.6666ZM79.978,80.0056l.0096-.0019-.0119.0068-33.309,72.3175L68.7114,160L80,80.0031L79.9808,80l-.0028.0056Zm.0203-.0199l-.0353.0353.0713-.0367.0027-.0053-.0387.0067Zm.0023.0189L138.306,140l15.027-21.664L80,80l.0006.0046ZM93.9883,160L120,152.117L80,80l13.9883,80ZM6.66667,118.715L21.9318,140L80,80L6.66667,118.715Z" transform="translate(-80,-80)" clip-rule="evenodd" fill="url(#eG4xzlEUsMA2-fill)" fill-rule="evenodd"/></g></svg>
