<svg id="epobJxF0Z1O1" xmlns="http://www.w3.org/2000/svg" xmlns:xlink="http://www.w3.org/1999/xlink" viewBox="0 0 86 85" shape-rendering="geometricPrecision" text-rendering="geometricPrecision" project-id="e0e835da5c074346843cd0eeaad1ca3d" export-id="c59266d6292d49e0a3027624d31a30eb" cached="false">
<style><![CDATA[
#epobJxF0Z1O3_to {animation: epobJxF0Z1O3_to__to 1500ms linear infinite normal forwards}@keyframes epobJxF0Z1O3_to__to { 0% {transform: translate(25.320607px,23.358829px)} 33.333333% {transform: translate(25.320607px,21.798829px)} 60% {transform: translate(25.320607px,21.798829px)} 93.333333% {transform: translate(25.320607px,23.058829px)} 100% {transform: translate(25.320607px,23.058829px)}} #epobJxF0Z1O3_tr {animation: epobJxF0Z1O3_tr__tr 1500ms linear infinite normal forwards}@keyframes epobJxF0Z1O3_tr__tr { 0% {transform: rotate(-4.446095deg)} 33.333333% {transform: rotate(-9.262697deg)} 60% {transform: rotate(-9.262697deg)} 93.333333% {transform: rotate(-5.372364deg)} 100% {transform: rotate(-5.372364deg)}} #epobJxF0Z1O4_to {animation: epobJxF0Z1O4_to__to 1500ms linear infinite normal forwards}@keyframes epobJxF0Z1O4_to__to { 0% {transform: translate(62.577579px,22.35882px)} 33.333333% {transform: translate(62.577579px,20.79882px)} 60% {transform: translate(62.577579px,20.79882px)} 93.333333% {transform: translate(62.577579px,22.05882px)} 100% {transform: translate(62.577579px,22.05882px)}} #epobJxF0Z1O4_tr {animation: epobJxF0Z1O4_tr__tr 1500ms linear infinite normal forwards}@keyframes epobJxF0Z1O4_tr__tr { 0% {transform: rotate(4.035507deg)} 33.333333% {transform: rotate(8.407306deg)} 60% {transform: rotate(8.407306deg)} 93.333333% {transform: rotate(4.876237deg)} 100% {transform: rotate(4.876237deg)}} #epobJxF0Z1O5_to {animation: epobJxF0Z1O5_to__to 1500ms linear infinite normal forwards}@keyframes epobJxF0Z1O5_to__to { 0% {transform: translate(43px,35.397088px)} 33.333333% {transform: translate(43px,30.032554px)} 60% {transform: translate(43px,30.032554px)} 93.333333% {transform: translate(43px,34.365447px)} 100% {transform: translate(43px,34.365447px)}} #epobJxF0Z1O5_ts {animation: epobJxF0Z1O5_ts__ts 1500ms linear infinite normal forwards}@keyframes epobJxF0Z1O5_ts__ts { 0% {transform: scale(1,1.066974)} 33.333333% {transform: scale(1,1.139529)} 60% {transform: scale(1,1.139529)} 93.333333% {transform: scale(1,1.080927)} 100% {transform: scale(1,1.080927)}} #epobJxF0Z1O15_to {animation: epobJxF0Z1O15_to__to 1500ms linear infinite normal forwards}@keyframes epobJxF0Z1O15_to__to { 0% {transform: translate(52.360524px,58.172712px)} 33.333333% {transform: translate(52.360524px,54.012712px)} 60% {transform: translate(52.360524px,54.012712px)} 93.333333% {transform: translate(52.360524px,57.372712px)} 100% {transform: translate(52.360524px,57.372712px)}} #epobJxF0Z1O15_ts {animation: epobJxF0Z1O15_ts__ts 1500ms linear infinite normal forwards}@keyframes epobJxF0Z1O15_ts__ts { 0% {transform: scale(0.48,0.48)} 33.333333% {transform: scale(1,1)} 60% {transform: scale(1,1)} 93.333333% {transform: scale(0.58,0.58)} 100% {transform: scale(0.58,0.58)}}
]]></style>
<defs><radialGradient id="epobJxF0Z1O2-fill" cx="0" cy="0" r="1" spreadMethod="pad" gradientUnits="userSpaceOnUse" gradientTransform="matrix(1.25814 76.8029 -49.1509 0.805159 43.2239 -0.000002)"><stop id="epobJxF0Z1O2-fill-0" offset="0%" stop-color="#fed5cc"/><stop id="epobJxF0Z1O2-fill-1" offset="79.3979%" stop-color="#fcb8a9"/><stop id="epobJxF0Z1O2-fill-2" offset="100%" stop-color="#bd7162"/></radialGradient><linearGradient id="epobJxF0Z1O6-fill" x1="85.7895" y1="62.8727" x2="85.8037" y2="46.0367" spreadMethod="pad" gradientUnits="userSpaceOnUse" gradientTransform="translate(0 0)"><stop id="epobJxF0Z1O6-fill-0" offset="0%" stop-color="#fff"/><stop id="epobJxF0Z1O6-fill-1" offset="100%" stop-color="#fff"/></linearGradient><filter id="epobJxF0Z1O11-filter" x="-150%" y="-150%" width="400%" height="400%"><feGaussianBlur id="epobJxF0Z1O11-filter-blur-0" stdDeviation="6.7957,6.7957" result="result"/></filter></defs><path d="M42.9459,0C19.6529,0.149,0.815918,19.079,0.815918,42.407c0,23.422,18.985982,42.409,42.407982,42.409c23.329,0,42.258-18.837,42.408-42.131v-.556c-.149-23.2-18.93-41.98-42.13-42.129h-.556Z" clip-rule="evenodd" fill="url(#epobJxF0Z1O2-fill)" fill-rule="evenodd"/><g id="epobJxF0Z1O3_to" transform="translate(25.320607,23.358829)"><g id="epobJxF0Z1O3_tr" transform="rotate(-4.446095)"><path d="M33.8542,26.4453c-.942.299-2.011.045-2.706-.747-1.398-1.607-4.26-2.452-6.639-1.698-2.355.747-4.282,3.16-4.521,5.212-.132,1.375-1.367,2.384-2.75,2.229-1.375-.132-2.384-1.367-2.23-2.75.416-3.984,3.216-8.625,7.794-10.077c4.577-1.451,9.505.617,12.207,3.686.937,1.086.831,2.701-.232,3.63-.272.235-.587.409-.923.515Z" transform="translate(-25.320607,-24.798829)" clip-rule="evenodd" fill="#1f0d09" fill-rule="evenodd"/></g></g><g id="epobJxF0Z1O4_to" transform="translate(62.577579,22.35882)"><g id="epobJxF0Z1O4_tr" transform="rotate(4.035507)"><path d="M53.1209,24.9305c-1.063-.93-1.169-2.544-.232-3.63c2.702-3.069,7.629-5.138,12.207-3.686s7.378,6.092,7.794,10.077c.155,1.383-.855,2.618-2.23,2.75-1.383.155-2.618-.855-2.75-2.23-.239-2.052-2.165-4.465-4.521-5.212-2.379-.754-5.241.092-6.638,1.699-.696.792-1.765,1.045-2.707.747-.336-.107-.652-.281-.923-.515Z" transform="translate(-62.577579,-23.79882)" clip-rule="evenodd" fill="#1f0d09" fill-rule="evenodd"/></g></g><g id="epobJxF0Z1O5_to" transform="translate(43,35.397088)"><g id="epobJxF0Z1O5_ts" transform="scale(1,1.066974)"><g transform="translate(-42.999996,-32.956079)"><path d="M58.2064,56.8079c.2041,1.0329.008,2.4726-.2249,3.1921.4174-.7153.9369-1.7793.8169-2.9638-.1579-1.5595-1.2163-2.3452-1.9825-3.0362.6127.7984,1.0728,1.2011,1.3905,2.8079Zm-29.3728.2283c-.1204,1.1845.3994,2.2485.8167,2.9638-.2327-.7195-.4293-2.1592-.2252-3.1921.3177-1.6068.7781-2.0095,1.3908-2.8079-.7661.691-1.8249,1.4767-1.9823,3.0362Z" opacity="0.01" clip-rule="evenodd" fill="url(#epobJxF0Z1O6-fill)" fill-opacity="0.2" fill-rule="evenodd"/><path d="M59.8159,46.7514c-.0455,6.2482-7.2452,11.2884-16.0821,11.2577-8.8365-.0309-15.9632-5.1211-15.9177-11.3689.0451-6.2482,32.0453-6.137,31.9998.1112Z" clip-rule="evenodd" fill="#fff" fill-opacity="0.3" fill-rule="evenodd"/><path d="M59.8159,46.4572c-.0438,5.8577-7.2421,10.5821-16.0784,10.5519s-15.9647-4.8029-15.9214-10.6606c.0433-5.8579,32.0435-5.7486,31.9998.1087Z" clip-rule="evenodd" fill="#0f0404" fill-rule="evenodd"/><g mask="url(#epobJxF0Z1O13)"><g><g filter="url(#epobJxF0Z1O11-filter)"><path d="M55.0847,57.3301c.5684,2.3423-3.7296,2.948-9.3903,3.4991-5.6611.5517-11.5056-.1339-12.074-2.4762-.5684-2.342,3.494-5.7342,9.1547-6.2853c5.6611-.5514,11.7412,2.9204,12.3096,5.2624Z" clip-rule="evenodd" fill="#963926" fill-rule="evenodd"/></g></g><mask id="epobJxF0Z1O13" mask-type="luminance" x="-150%" y="-150%" height="400%" width="400%"><path d="M27.8161,46.3484c-.0428,5.8577,7.0037,10.6305,15.7391,10.6607c8.735.0302,15.8502-4.6943,15.8935-10.552.022-2.9562-8.0224-4.4481-16.0042-4.4478-7.8334.0003-15.6072,1.4377-15.6284,4.3391Z" clip-rule="evenodd" fill="#fff" fill-rule="evenodd"/></mask></g></g></g></g><g id="epobJxF0Z1O15_to" transform="translate(52.360524,58.172712)"><g id="epobJxF0Z1O15_ts" transform="scale(0.48,0.48)"><g transform="translate(-52.360522,-54.01271)"><path d="M47.9993,62.6264c-2.5-1.5,0-4.9999,0-5.9999c0-.4235,6.9936-5.0356,8-5.5001.3333-.1666,1.1-.3,1.5.5.5,1-.5,3.5-.5,7s1.5,3.5,3,7c1.2,2.8-.4998,4.3736-2.5,4-1.5-.1666-4.2-1.3-3-4.5c1.5-4,1-5.5,1-7.9999c0-2,.1669-2.2931-.4998-2.1265-.5,0-3.5002,0-3.5002,2.1265c0,2-1,6.9999-3.5,5.4999Z" fill="#038dfb" stroke="#006abf" stroke-width="0.5" stroke-linejoin="round"/><path d="M58.9995,67c0,.5523-.6716,1-1.5,1s-1.5-.5-1.5-1c0-.5523.1716-3,1-3s2,2.4477,2,3Z" fill="#006abf"/><path d="M50.4995,59.0001c0,.8284-.9477,2.9999-1.5,2.9999s-1-.1716-1-1s.4477-2.5,1-2.5s1.5-.3284,1.5.5001Z" fill="#006abf"/><path d="M48.9995,56.5l7.1852-4.4907c.3431-.2145.7856.0462.7643.4502L56.4995,61l-.5.5c0-2-.1-6.2-.5-7-.2696-.5392-1.69-.2758-2.9447.2083-1.0535.4065-1.7057,1.3934-1.9796,2.4888-.048.1923-.1777.3539-.3549.4425l-.1131.0566c-.7597.3798-1.5447-.4679-1.1077-1.1962Z" fill="#4bafff"/></g></g></g></svg>
