<svg id="eJ4u1rFCing1" xmlns="http://www.w3.org/2000/svg" xmlns:xlink="http://www.w3.org/1999/xlink" viewBox="0 0 160 160" shape-rendering="geometricPrecision" text-rendering="geometricPrecision" project-id="e5abb8666cc3437a8dff12f3202cb17d" export-id="c665b4e061de4d7ea5daf5fe4f0539e2" cached="false">
<style><![CDATA[
#eJ4u1rFCing2_tr {animation: eJ4u1rFCing2_tr__tr 1500ms linear infinite normal forwards}@keyframes eJ4u1rFCing2_tr__tr { 0% {transform: translate(80px,80px) rotate(0deg)} 100% {transform: translate(80px,80px) rotate(360deg)}} #eJ4u1rFCing5_to {animation: eJ4u1rFCing5_to__to 1500ms linear infinite normal forwards}@keyframes eJ4u1rFCing5_to__to { 0% {transform: translate(106.701351px,43.715342px)} 45.333333% {transform: translate(106.701351px,33.715342px)} 100% {transform: translate(106.701351px,43.715342px)}} #eJ4u1rFCing5_ts {animation: eJ4u1rFCing5_ts__ts 1500ms linear infinite normal forwards}@keyframes eJ4u1rFCing5_ts__ts { 0% {transform: scale(1,1)} 45.333333% {transform: scale(1.1,1.1)} 100% {transform: scale(1,1)}} #eJ4u1rFCing6_to {animation: eJ4u1rFCing6_to__to 1500ms linear infinite normal forwards}@keyframes eJ4u1rFCing6_to__to { 0% {transform: translate(52.962378px,43.715342px)} 45.333333% {transform: translate(52.962378px,33.715342px)} 100% {transform: translate(52.962378px,43.715342px)}} #eJ4u1rFCing6_ts {animation: eJ4u1rFCing6_ts__ts 1500ms linear infinite normal forwards}@keyframes eJ4u1rFCing6_ts__ts { 0% {transform: scale(1,1)} 45.333333% {transform: scale(1.1,1.1)} 100% {transform: scale(1,1)}} #eJ4u1rFCing7_to {animation: eJ4u1rFCing7_to__to 1500ms linear infinite normal forwards}@keyframes eJ4u1rFCing7_to__to { 0% {transform: translate(79.938576px,82.614262px)} 45.333333% {transform: translate(79.938576px,70.614262px)} 100% {transform: translate(79.938576px,82.614262px)}}
]]></style>
<defs><radialGradient id="eJ4u1rFCing2-fill" cx="0" cy="0" r="1" spreadMethod="pad" gradientUnits="userSpaceOnUse" gradientTransform="matrix(0 80 -80 0 79.0632 80)"><stop id="eJ4u1rFCing2-fill-0" offset="0%" stop-color="#5a09d9"/><stop id="eJ4u1rFCing2-fill-1" offset="26.0417%" stop-color="#5a09d9"/><stop id="eJ4u1rFCing2-fill-2" offset="100%" stop-color="rgba(90,9,217,0)"/></radialGradient><filter id="eJ4u1rFCing3-filter" x="-150%" y="-150%" width="400%" height="400%"><feGaussianBlur id="eJ4u1rFCing3-filter-inner-shadow-0-blur" in="SourceAlpha" stdDeviation="3,3"/><feOffset id="eJ4u1rFCing3-filter-inner-shadow-0-offset" dx="0" dy="0" result="tmp"/><feComposite id="eJ4u1rFCing3-filter-inner-shadow-0-composite" operator="arithmetic" k2="-1" k3="1" in2="SourceGraphic"/><feColorMatrix id="eJ4u1rFCing3-filter-inner-shadow-0-color-matrix" type="matrix" values="0 0 0 0 1 0 0 0 0 1 0 0 0 0 1 0 0 0 0.5 0"/><feMerge id="eJ4u1rFCing3-filter-inner-shadow-0-merge" result="result"><feMergeNode id="eJ4u1rFCing3-filter-inner-shadow-0-merge-node-1" in="SourceGraphic"/><feMergeNode id="eJ4u1rFCing3-filter-inner-shadow-0-merge-node-2"/></feMerge></filter><radialGradient id="eJ4u1rFCing4-fill" cx="0" cy="0" r="1" spreadMethod="pad" gradientUnits="userSpaceOnUse" gradientTransform="matrix(1.57237 95.9855 -61.427 1.00626 80 27)"><stop id="eJ4u1rFCing4-fill-0" offset="0%" stop-color="#fed5cc"/><stop id="eJ4u1rFCing4-fill-1" offset="79.3979%" stop-color="#fcb8a9"/><stop id="eJ4u1rFCing4-fill-2" offset="100%" stop-color="#bd7162"/></radialGradient><filter id="eJ4u1rFCing12-filter" x="-150%" y="-150%" width="400%" height="400%"><feGaussianBlur id="eJ4u1rFCing12-filter-blur-0" stdDeviation="6.7957,6.7957" result="result"/></filter></defs><g id="eJ4u1rFCing2_tr" transform="translate(80,80) rotate(0)"><path d="M91.291,0L80,79.9895L80.0017,80L113.333,7.69081L91.291,0ZM40,7.8876L79.9953,80L80,79.9963L65.9851,0L40,7.8876ZM80,79.9974L80.0006,80L153.333,41.2615L138.084,20L80,79.9974ZM6.66667,41.6617L79.9906,80L80,79.9896L21.6933,20L6.66667,41.6617ZM80,80.4256l.0006.002L160,93.3333l-.088-26.6666L80,80.4256ZM0.086532,93.3333L79.9845,79.5806L80,79.5643L0,66.6667l.086532,26.6666ZM79.978,80.0056l.0096-.0019-.0119.0068-33.309,72.3175L68.7114,160L80,80.0031L79.9808,80l-.0028.0056Zm.0203-.0199l-.0353.0353.0713-.0367.0027-.0053-.0387.0067Zm.0023.0189L138.306,140l15.027-21.664L80,80l.0006.0046ZM93.9883,160L120,152.117L80,80l13.9883,80ZM6.66667,118.715L21.9318,140L80,80L6.66667,118.715Z" transform="translate(-80,-80)" clip-rule="evenodd" fill="url(#eJ4u1rFCing2-fill)" fill-rule="evenodd"/></g><g filter="url(#eJ4u1rFCing3-filter)"><path d="M79.6526,27C50.5418,27.1862,27,50.8443,27,79.9988v0C27,109.271,50.728,133,80,133v0c29.156,0,52.813-23.542,53-52.6538v0-.6949C132.814,50.6568,109.342,27.1862,80.3474,27v0h-.6948Z" clip-rule="evenodd" fill="url(#eJ4u1rFCing4-fill)" fill-rule="evenodd"/></g><g id="eJ4u1rFCing5_to" transform="translate(106.701351,43.715342)"><g id="eJ4u1rFCing5_ts" transform="scale(1,1)"><path d="M107.471,38.8588c-.001.0025,0,0-.005.0112-2.608-9.5069-14.0034-8.6209-14.2246-.5824-.2112,7.5548,7.8776,17.1105,7.9046,17.138l.018.0063c.036-.0025,12.452-1.7709,17.34-7.5498c5.202-6.1489-2.738-14.3923-11.033-9.0233" transform="translate(-106.701351,-43.715342)" clip-rule="evenodd" fill="#be1e2d" fill-rule="evenodd"/></g></g><g id="eJ4u1rFCing6_to" transform="translate(52.962378,43.715342)"><g id="eJ4u1rFCing6_ts" transform="scale(1,1)"><path d="M52.1916,38.8588c.0013.0025,0,0,.005.0112c2.6083-9.5069,14.0049-8.6209,14.2261-.5824.2099,7.5548-7.8785,17.1105-7.906,17.138l-.0175.0063c-.035-.0025-12.4527-1.7709-17.3405-7.5498-5.2003-6.1489,2.7382-14.3923,11.0329-9.0233" transform="translate(-52.962378,-43.715342)" clip-rule="evenodd" fill="#be1e2d" fill-rule="evenodd"/></g></g><g id="eJ4u1rFCing7_to" transform="translate(79.938576,82.614262)"><g transform="translate(-79.938575,-82.614261)"><path d="M105.382,72.2149c-.076,14.4285-11.5164,26.0663-25.5675,25.9926-14.0524-.075-25.394-11.8316-25.319-26.2613.0187-3.4469,50.9055-3.1782,50.8865.2687" clip-rule="evenodd" fill="#fff" fill-opacity="0.3" fill-rule="evenodd"/><path d="M105.382,68.4656c-.076,14.4285-11.5164,26.0663-25.5675,25.9926-14.0524-.075-25.394-11.8315-25.319-26.2613.0187-3.4469,50.9055-3.1782,50.8865.2687" clip-rule="evenodd" fill="#0f0404" fill-rule="evenodd"/><g mask="url(#eJ4u1rFCing14)"><g><g filter="url(#eJ4u1rFCing12-filter)"><path d="M93.1758,94.8883c.6916,2.9273-4.5384,3.6843-11.4267,4.373-6.8888.6895-14.0007-.1674-14.6924-3.0946-.6916-2.927,4.2517-7.1664,11.14-7.8551c6.8888-.6891,14.2874,3.6498,14.9791,6.5767" clip-rule="evenodd" fill="#963926" fill-rule="evenodd"/></g></g><mask id="eJ4u1rFCing14" mask-type="luminance" x="-150%" y="-150%" height="400%" width="400%"><path d="M60.7434,81.1638c-.0507,7.3207,8.3012,13.2856,18.6548,13.3233v0c10.3532.0378,18.7866-5.8667,18.8378-13.1875v0c.0262-3.6946-9.5085-5.5591-18.969-5.5588v0c-9.2846.0004-18.4985,1.7968-18.5236,5.423" transform="translate(.000001 0)" clip-rule="evenodd" fill="#fff" fill-rule="evenodd"/></mask></g></g></g></svg>
