<?xml version="1.0" encoding="utf-8"?>
<!-- Generator: Adobe Illustrator 24.2.1, SVG Export Plug-In . SVG Version: 6.00 Build 0)  -->
<svg version="1.1" id="Layer_1" xmlns="http://www.w3.org/2000/svg" xmlns:xlink="http://www.w3.org/1999/xlink" x="0px" y="0px"
	 viewBox="0 0 38.3 14.6" style="enable-background:new 0 0 38.3 14.6;" xml:space="preserve">
<style type="text/css">
	.st0{fill-rule:evenodd;clip-rule:evenodd;fill:#038DFB;}
</style>
<g id="Symbols">
	<g id="ui_x2F_game_x2F_letterWithPowerupIce" transform="translate(-7.000000, -3.000000)">
		<path id="Path-3" class="st0" d="M39.6,6.4l-3.9-1.6C33.9,4,31.9,3.2,29.9,3l-3.7,0l-4.7,0c-2,0.4-4.5,1.6-6.2,2.7l-3,2.6
			l-4.5,4.8L7,15.7l0.4,1.9c0.5-3.5,1-4.8,1.4-3.8c0.6,1.4,1.6,0.5,1.6,0.3c0-0.3,0.8-3.7,1.4-3.4c0.4,0.2,0.6,1,0.6,2.4
			C13.5,10.6,14,8.9,14,8s0.6,0.4,1.8,3.9l1.8-5l2,2.4c-0.4-1.8-0.2-2.9,0.6-3.2c0.7-0.4,1.4-0.1,1.8,0.8l1.7-2.2L24.8,6l1.4-1.4
			L27.9,8l1.7-3.4c0.7,0.6,1.1,1.2,1.1,1.8s0.2,1.6,0.6,2.8C32.4,7.2,33,6,33,5.7c0-0.5,0.7,2,2.4,2.3c1.2,0.2,2.2,0.3,2.9,0.3
			l-0.5,2.8l2.8-2.6l0.3,4.5l2.2-2.8l1,3.1l1.2-2.8L39.6,6.4z"/>
	</g>
</g>
</svg>
